<svg width="20" height="21" viewBox="0 0 20 21" fill="none" xmlns="http://www.w3.org/2000/svg">
<path d="M17.5 1.625H15.625V1.25C15.625 0.951631 15.5065 0.665483 15.2955 0.454505C15.0845 0.243526 14.7984 0.125 14.5 0.125C14.2016 0.125 13.9155 0.243526 13.7045 0.454505C13.4935 0.665483 13.375 0.951631 13.375 1.25V1.625H6.625V1.25C6.625 0.951631 6.50647 0.665483 6.2955 0.454505C6.08452 0.243526 5.79837 0.125 5.5 0.125C5.20163 0.125 4.91548 0.243526 4.7045 0.454505C4.49353 0.665483 4.375 0.951631 4.375 1.25V1.625H2.5C2.00272 1.625 1.52581 1.82254 1.17417 2.17417C0.822544 2.52581 0.625 3.00272 0.625 3.5V18.5C0.625 18.9973 0.822544 19.4742 1.17417 19.8258C1.52581 20.1775 2.00272 20.375 2.5 20.375H17.5C17.9973 20.375 18.4742 20.1775 18.8258 19.8258C19.1775 19.4742 19.375 18.9973 19.375 18.5V3.5C19.375 3.00272 19.1775 2.52581 18.8258 2.17417C18.4742 1.82254 17.9973 1.625 17.5 1.625ZM4.375 3.875C4.375 4.17337 4.49353 4.45952 4.7045 4.6705C4.91548 4.88147 5.20163 5 5.5 5C5.79837 5 6.08452 4.88147 6.2955 4.6705C6.50647 4.45952 6.625 4.17337 6.625 3.875H13.375C13.375 4.17337 13.4935 4.45952 13.7045 4.6705C13.9155 4.88147 14.2016 5 14.5 5C14.7984 5 15.0845 4.88147 15.2955 4.6705C15.5065 4.45952 15.625 4.17337 15.625 3.875H17.125V6.125H2.875V3.875H4.375ZM2.875 18.125V8.375H17.125V18.125H2.875Z" fill="#B3B3B3"/>
</svg>
